<svg xmlns="http://www.w3.org/2000/svg" viewBox="0 0 6.42 12.81"><defs><style>.cls-1{fill:#fff;}</style></defs><title>Asset 6</title><g id="Layer_2" data-name="Layer 2"><g id="header"><path class="cls-1" d="M3.21,7.7a.38.38,0,1,1-.38.38A.38.38,0,0,1,3.21,7.7Zm1.28,5.11v-.17H1.93v.17H.79v-.17H.13A.13.13,0,0,1,0,12.5V.31A.13.13,0,0,1,.13.18H.76L.9,0H5.51l.15.18h.62a.13.13,0,0,1,.13.13V12.5a.13.13,0,0,1-.13.13H5.63v.17ZM1,2.55H5.42V1.31H1ZM1,4.16H5.42V2.92H1ZM1,5.76H5.42V4.53H1ZM3.21,7.37a.7.7,0,1,0,.7.7A.7.7,0,0,0,3.21,7.37Zm2.22,4V8.25A2.73,2.73,0,0,1,1,8.25v3.16Z"/></g></g></svg>