<svg xmlns="http://www.w3.org/2000/svg" viewBox="0 0 14 10.5"><defs><style>.cls-1{fill:#fff;}</style></defs><title>Asset 4</title><g id="Layer_2" data-name="Layer 2"><g id="header"><path class="cls-1" d="M14,8.75a1.73,1.73,0,0,1-.22.84L9.36,4.65,13.73.82a1.74,1.74,0,0,1,.27.93v7ZM7,5.54,13.08.22A1.73,1.73,0,0,0,12.25,0H1.75A1.72,1.72,0,0,0,.92.22Zm1.7-.32L7.29,6.45a.44.44,0,0,1-.58,0L5.3,5.22l-4.48,5a1.73,1.73,0,0,0,.92.27h10.5a1.73,1.73,0,0,0,.92-.27ZM.27.82A1.74,1.74,0,0,0,0,1.75v7a1.73,1.73,0,0,0,.22.84L4.64,4.65Z"/></g></g></svg>