<svg xmlns="http://www.w3.org/2000/svg" viewBox="0 0 10.33 9.89"><defs><style>.cls-1{fill:#fff;}</style></defs><title>Asset 3</title><g id="Layer_2" data-name="Layer 2"><g id="header"><path class="cls-1" d="M10.1,4.48a.74.74,0,0,0-.41-1.26l-2.5-.36a.33.33,0,0,1-.25-.18L5.83.41A.74.74,0,0,0,4.5.41L3.38,2.68a.33.33,0,0,1-.25.18l-2.5.36A.74.74,0,0,0,.22,4.48L2,6.25a.33.33,0,0,1,.09.29L1.7,9a.72.72,0,0,0,.16.6.75.75,0,0,0,.91.18L5,8.63a.33.33,0,0,1,.3,0L7.55,9.81a.73.73,0,0,0,.34.09.74.74,0,0,0,.57-.27A.72.72,0,0,0,8.63,9L8.2,6.54a.33.33,0,0,1,.09-.29Z"/></g></g></svg>