<svg xmlns="http://www.w3.org/2000/svg" viewBox="0 0 14 7.64"><defs><style>.cls-1{fill:#fff;}</style></defs><title>Asset 5</title><g id="Layer_2" data-name="Layer 2"><g id="header"><path class="cls-1" d="M12.73,0a1.28,1.28,0,0,0-1.27,1.27,1.08,1.08,0,0,0,0,.32L9.24,3.86a1.25,1.25,0,0,0-.66,0L7,2.24a1.12,1.12,0,0,0,0-.33,1.27,1.27,0,0,0-2.55,0,1.12,1.12,0,0,0,0,.33L1.6,5.14a1.08,1.08,0,0,0-.32,0A1.27,1.27,0,1,0,2.55,6.36,1.08,1.08,0,0,0,2.5,6l2.9-2.9a1.25,1.25,0,0,0,.66,0L7.68,4.76a1.12,1.12,0,0,0,0,.33,1.27,1.27,0,0,0,2.55,0,1.12,1.12,0,0,0,0-.33L12.4,2.5a1.08,1.08,0,0,0,.32,0,1.27,1.27,0,0,0,0-2.55Z"/></g></g></svg>