<svg xmlns="http://www.w3.org/2000/svg" viewBox="0 0 393.25 511.9"><defs><style>.cls-1{fill:#f13e41;}</style></defs><title>Asset 1</title><g id="Layer_2" data-name="Layer 2"><g id="Layer_1-2" data-name="Layer 1"><path class="cls-1" d="M0,450.57V196.62C0,88.48,88.48,0,196.62,0h0C304.77,0,393.25,88.48,393.25,196.62v254H0Z"/><polyline class="cls-1" points="49.16 450.57 0 511.9 0 450.57 49.16 450.57"/><polyline class="cls-1" points="344.09 450.57 393.25 511.9 393.25 450.57 344.09 450.57"/><polygon class="cls-1" points="98.31 511.9 147.47 450.57 49.16 450.57 98.31 511.9"/><polygon class="cls-1" points="196.62 511.9 245.78 450.57 147.47 450.57 196.62 511.9"/><polygon class="cls-1" points="294.94 511.9 344.09 450.57 245.78 450.57 294.94 511.9"/><rect x="201.88" y="312.67" width="110.5" height="16" transform="translate(-4.37 3.55) rotate(-0.78)"/><circle cx="201.87" cy="178.33" r="28.54"/><circle cx="319.34" cy="178.33" r="28.54"/></g></g></svg>