<svg xmlns="http://www.w3.org/2000/svg" viewBox="0 0 402.41 33.35"><defs><style>.cls-1{fill:#fff;}.cls-2{fill:#f13e41;}</style></defs><title>Asset 3</title><g id="Layer_2" data-name="Layer 2"><g id="logo"><path class="cls-1" d="M3.86.44h19.6q4.2,0,7.73,3.95A10,10,0,0,1,33.28,10v1.35q0,4-3.92,7.46A10.46,10.46,0,0,1,23.25,21h-15v8.42q0,2.69-3.1,3.88a3,3,0,0,1-.57.07H3.67q-2.09,0-3.42-2.52A3.36,3.36,0,0,1,0,29.66V4.28Q0,1.77,2.94.58A3.52,3.52,0,0,1,3.86.44ZM8.26,8.61v4.27H25V8.61Z"/><path class="cls-1" d="M39.43.44H59q4.2,0,7.73,3.95A10,10,0,0,1,68.85,10v1.35q0,4-4,7.53A11.7,11.7,0,0,1,61,20.73v0q5.09,4.52,6.7,6.29a4.46,4.46,0,0,1,.71,2.27q0,2.59-2.89,3.88a4.07,4.07,0,0,1-.85.14h-.92q-1.61,0-4.25-2.85-.92-.76-10.42-9.52H43.83v8.42q0,2.69-3.1,3.88a3,3,0,0,1-.57.07h-.92q-2.09,0-3.42-2.52a3.36,3.36,0,0,1-.25-1.17V4.28q0-2.5,2.94-3.69A3.52,3.52,0,0,1,39.43.44Zm4.41,8.17v4.27H60.59V8.61Z"/><path class="cls-1" d="M75,.44h25.68q2.11,0,3.49,2.46a4,4,0,0,1,.25,1.17V5q0,2-2.48,3.3a4.08,4.08,0,0,1-1.51.32h-21v4.2H95.65a4.12,4.12,0,0,1,4.18,2.46,3.22,3.22,0,0,1,.32,1.31v.57q0,2.5-2.94,3.69a3.34,3.34,0,0,1-.92.14H79.4v4.2H100a4.14,4.14,0,0,1,4.45,3.51v1.1q0,1.91-2.36,3.24a2.87,2.87,0,0,1-1.24.32h-26q-2.09,0-3.42-2.52a3.36,3.36,0,0,1-.25-1.17V4.28q0-2.5,2.94-3.69A3.52,3.52,0,0,1,75,.44Z"/><path class="cls-1" d="M118.14.44H136.2a3.92,3.92,0,0,1,3.72,2.73,3,3,0,0,1,.07.57V5q0,1.93-2.43,3.3a5.21,5.21,0,0,1-1.56.32H115v4.13h12.48q7.6,0,11.31,4.8A6,6,0,0,1,140,20.59V25.5q0,2.87-3.86,5.65a14.11,14.11,0,0,1-7.25,2.2H110.32A4,4,0,0,1,107,31.22a3,3,0,0,1-.32-1.24v-.9q0-2.5,2.94-3.69a5.1,5.1,0,0,1,1.51-.21h20.59V21.05h-13.2a14,14,0,0,1-9.48-3.44,6.86,6.86,0,0,1-2.36-4.8V8.66q0-4,5.55-6.93A16.1,16.1,0,0,1,118.14.44Z"/><path class="cls-1" d="M153.71.44h18.06a3.92,3.92,0,0,1,3.72,2.73,3,3,0,0,1,.07.57V5q0,1.93-2.43,3.3a5.21,5.21,0,0,1-1.56.32h-21v4.13h12.48q7.6,0,11.31,4.8a6,6,0,0,1,1.17,3.05V25.5q0,2.87-3.86,5.65a14.11,14.11,0,0,1-7.25,2.2H145.89a4,4,0,0,1-3.28-2.13,3,3,0,0,1-.32-1.24v-.9q0-2.5,2.94-3.69a5.1,5.1,0,0,1,1.51-.21h20.59V21.05h-13.2a14,14,0,0,1-9.48-3.44,6.86,6.86,0,0,1-2.36-4.8V8.66q0-4,5.55-6.93A16.1,16.1,0,0,1,153.71.44Z"/><path class="cls-1" d="M247.58.44h18.06a3.92,3.92,0,0,1,3.72,2.73,3,3,0,0,1,.07.57V5q0,1.93-2.43,3.3a5.21,5.21,0,0,1-1.56.32h-21v4.13h12.48q7.6,0,11.31,4.8a6,6,0,0,1,1.17,3.05V25.5q0,2.87-3.86,5.65a14.11,14.11,0,0,1-7.25,2.2H239.75a4,4,0,0,1-3.28-2.13,3,3,0,0,1-.32-1.24v-.9q0-2.5,2.94-3.69a5.1,5.1,0,0,1,1.51-.21h20.59V21.05H248a14,14,0,0,1-9.48-3.44,6.86,6.86,0,0,1-2.36-4.8V8.66q0-4,5.55-6.93A16.1,16.1,0,0,1,247.58.44Z"/><path class="cls-1" d="M275.57.44h25.68q2.11,0,3.49,2.46A4,4,0,0,1,305,4.07V5q0,2-2.48,3.3a4.08,4.08,0,0,1-1.51.32h-8.51V29.52q0,2.55-3,3.76l-.67.07h-.92q-2,0-3.35-2.46a4,4,0,0,1-.32-1.49V8.61h-8.31a4.1,4.1,0,0,1-4.06-2.91,4.38,4.38,0,0,1-.14-.85V4.28q0-2.5,2.94-3.69A3.52,3.52,0,0,1,275.57.44Z"/><path class="cls-1" d="M314.34.44H315q2.55,0,4.11,4.06,11.77,23.2,12.12,24.12v1.24q0,2.09-2.75,3.35a4.51,4.51,0,0,1-1,.14H327q-2.57,0-4.15-4.2-8.1-16-8.22-16.11Q305.52,31.26,305,32a4,4,0,0,1-2.8,1.35h-.57q-2.09,0-3.44-2.52a4.59,4.59,0,0,1-.21-1.17v-.5q0-.92,2.34-5.3L311.4,2A3.8,3.8,0,0,1,314.34.44Z"/><path class="cls-1" d="M337.42.44H357q4.2,0,7.73,3.95A10,10,0,0,1,366.84,10v1.35q0,4-4,7.53A11.7,11.7,0,0,1,359,20.73v0q5.09,4.52,6.7,6.29a4.46,4.46,0,0,1,.71,2.27q0,2.59-2.89,3.88a4.07,4.07,0,0,1-.85.14h-.92q-1.61,0-4.25-2.85-.92-.76-10.42-9.52h-5.23v8.42q0,2.69-3.1,3.88a3,3,0,0,1-.57.07h-.92q-2.09,0-3.42-2.52a3.36,3.36,0,0,1-.25-1.17V4.28q0-2.5,2.94-3.69A3.52,3.52,0,0,1,337.42.44Zm4.41,8.17v4.27h16.75V8.61Z"/><path class="cls-1" d="M373,.44h25.68q2.11,0,3.49,2.46a4,4,0,0,1,.25,1.17V5q0,2-2.48,3.3a4.08,4.08,0,0,1-1.51.32h-8.51V29.52q0,2.55-3,3.76l-.67.07h-.92q-2,0-3.35-2.46a4,4,0,0,1-.32-1.49V8.61h-8.31a4.1,4.1,0,0,1-4.06-2.91,4.38,4.38,0,0,1-.14-.85V4.28q0-2.5,2.94-3.69A3.52,3.52,0,0,1,373,.44Z"/><path class="cls-2" d="M226.13,11c-1.92-3.78-4.87-6.44-8.16-7.32a7.9,7.9,0,0,0-6.34.88,17.41,17.41,0,0,1-4.13,1v-4a1.47,1.47,0,0,0-2.95,0V5.6a16.88,16.88,0,0,1-4.37-.88A7.75,7.75,0,0,0,194,3.83c-3.19.84-6.14,3.49-8.06,7.18-3.29,6.44-2.26,13.91,2.36,17a7.59,7.59,0,0,0,6.29,1c3.1-.79,5.9-3.19,7.81-6.64a9.63,9.63,0,0,1,6.93,0,13.44,13.44,0,0,0,8,6.78,8.19,8.19,0,0,0,2.16.29,7.79,7.79,0,0,0,4.28-1.28C228.29,25.17,229.37,17.45,226.13,11ZM222,25.71a4.8,4.8,0,0,1-4,.59,10.71,10.71,0,0,1-6.24-5.6,2.08,2.08,0,0,0-.88-.88,0,0,0,0,1,0,0,12.55,12.55,0,0,0-9.49-.2l-.1,0c-.1,0-.2,0-.29.1a1.7,1.7,0,0,0-.88.84,10.6,10.6,0,0,1-6.14,5.55,4.75,4.75,0,0,1-3.93-.59c-3.34-2.16-4-8.16-1.43-13.12,1.47-2.95,3.78-5.06,6.19-5.7a4.71,4.71,0,0,1,4,.59,1,1,0,0,0,.34.15l.15,0a20.08,20.08,0,0,0,13.66-.25l.29-.15a4.91,4.91,0,0,1,4.08-.59c2.46.64,4.77,2.8,6.29,5.8C226,17.35,225.39,23.54,222,25.71Z"/><path class="cls-2" d="M195.46,19.66A4.67,4.67,0,1,1,200.13,15,4.7,4.7,0,0,1,195.46,19.66Zm0-6.39A1.72,1.72,0,1,0,197.18,15,1.74,1.74,0,0,0,195.46,13.27Z"/><path class="cls-2" d="M220.77,13.76h-2v-2a1.47,1.47,0,1,0-2.95,0v2h-2a1.47,1.47,0,0,0,0,2.95h2v2a1.47,1.47,0,1,0,2.95,0v-2h2a1.47,1.47,0,0,0,0-2.95Z"/></g></g></svg>