<svg xmlns="http://www.w3.org/2000/svg" viewBox="0 0 413 55.72"><defs><style>.cls-1{font-size:47px;fill:#fff;font-family:Zian, Zian;}.cls-2{letter-spacing:-0.2em;}.cls-3{fill:#f13e41;}</style></defs><title>Asset 1</title><g id="Layer_2" data-name="Layer 2"><g id="logo"><text class="cls-1" transform="translate(0 39.95)"><tspan xml:space="preserve">press     s</tspan><tspan class="cls-2" x="271.72" y="0">t</tspan><tspan x="298" y="0">art</tspan></text><path class="cls-3" d="M226.13,17.56c-1.92-3.78-4.87-6.44-8.16-7.32a7.9,7.9,0,0,0-6.34.88,17.41,17.41,0,0,1-4.13,1v-4a1.47,1.47,0,0,0-2.95,0v4.13a16.88,16.88,0,0,1-4.37-.88,7.75,7.75,0,0,0-6.19-.88c-3.19.84-6.14,3.49-8.06,7.18-3.29,6.44-2.26,13.91,2.36,17a7.59,7.59,0,0,0,6.29,1c3.1-.79,5.9-3.19,7.81-6.64a9.63,9.63,0,0,1,6.93,0,13.44,13.44,0,0,0,8,6.78,8.19,8.19,0,0,0,2.16.29,7.79,7.79,0,0,0,4.28-1.28C228.29,31.77,229.37,24.05,226.13,17.56ZM222,32.31a4.8,4.8,0,0,1-4,.59,10.71,10.71,0,0,1-6.24-5.6,2.08,2.08,0,0,0-.88-.88,0,0,0,0,1,0,0,12.55,12.55,0,0,0-9.49-.2l-.1,0c-.1,0-.2,0-.29.1a1.7,1.7,0,0,0-.88.84,10.6,10.6,0,0,1-6.14,5.55,4.75,4.75,0,0,1-3.93-.59c-3.34-2.16-4-8.16-1.43-13.12,1.47-2.95,3.78-5.06,6.19-5.7a4.71,4.71,0,0,1,4,.59,1,1,0,0,0,.34.15l.15,0a20.08,20.08,0,0,0,13.66-.25l.29-.15a4.91,4.91,0,0,1,4.08-.59c2.46.64,4.77,2.8,6.29,5.8C226,24,225.39,30.15,222,32.31Z"/><path class="cls-3" d="M195.46,26.26a4.67,4.67,0,1,1,4.67-4.67A4.7,4.7,0,0,1,195.46,26.26Zm0-6.39a1.72,1.72,0,1,0,1.72,1.72A1.74,1.74,0,0,0,195.46,19.87Z"/><path class="cls-3" d="M220.77,20.36h-2v-2a1.47,1.47,0,1,0-2.95,0v2h-2a1.47,1.47,0,0,0,0,2.95h2v2a1.47,1.47,0,1,0,2.95,0v-2h2a1.47,1.47,0,0,0,0-2.95Z"/></g></g></svg>